<?xml version="1.0" encoding="utf-8"?>
<!-- Generator: Adobe Illustrator 24.2.3, SVG Export Plug-In . SVG Version: 6.00 Build 0)  -->
<svg version="1.2" baseProfile="tiny" id="レイヤー_1"
	 xmlns="http://www.w3.org/2000/svg" xmlns:xlink="http://www.w3.org/1999/xlink" x="0px" y="0px" viewBox="0 0 17.49 16.32"
	 overflow="visible" xml:space="preserve">
<path fill="#9E1F63" stroke="#9E1F63" stroke-miterlimit="10" d="M15.64,1.94c-0.85-0.92-2.05-1.44-3.3-1.44
	c-1.25,0-2.45,0.52-3.3,1.44L8.75,2.25L8.46,1.94c-1.7-1.82-4.55-1.93-6.37-0.23C2,1.78,1.92,1.86,1.85,1.94
	c-1.8,1.94-1.8,4.94,0,6.88l6.47,6.82c0.22,0.24,0.6,0.25,0.83,0.02c0.01-0.01,0.02-0.01,0.02-0.02l6.47-6.82
	C17.44,6.88,17.44,3.88,15.64,1.94z"/>
</svg>
