<?xml version="1.0" encoding="utf-8"?>
<!-- Generator: Adobe Illustrator 24.2.3, SVG Export Plug-In . SVG Version: 6.00 Build 0)  -->
<svg version="1.2" baseProfile="tiny" id="レイヤー_1"
	 xmlns="http://www.w3.org/2000/svg" xmlns:xlink="http://www.w3.org/1999/xlink" x="0px" y="0px" viewBox="0 0 23.19 21.27"
	 overflow="visible" xml:space="preserve">
<g>
	<g>
		<path fill="#FFFFFF" d="M18.3,16.4H8.99l-0.58-2.3h12.16l2.61-10.43H5.81L4.89,0H0v1.37h3.83L7.6,16.46
			c-1.1,0.24-1.92,1.21-1.92,2.38c0,1.34,1.09,2.44,2.44,2.44s2.44-1.09,2.44-2.44c0-0.38-0.09-0.75-0.25-1.07h5.81
			c-0.16,0.32-0.25,0.69-0.25,1.07c0,1.34,1.09,2.44,2.44,2.44c1.34,0,2.44-1.09,2.44-2.44C20.74,17.49,19.64,16.4,18.3,16.4z
			 M6.15,5.03h15.29l-1.93,7.7H8.08L6.15,5.03z M8.11,19.91c-0.59,0-1.07-0.48-1.07-1.07c0-0.59,0.48-1.07,1.07-1.07
			s1.07,0.48,1.07,1.07C9.18,19.43,8.7,19.91,8.11,19.91z M18.3,19.91c-0.59,0-1.07-0.48-1.07-1.07c0-0.59,0.48-1.07,1.07-1.07
			c0.59,0,1.07,0.48,1.07,1.07C19.37,19.43,18.89,19.91,18.3,19.91z"/>
	</g>
</g>
</svg>
