<?xml version="1.0" encoding="utf-8"?>
<!-- Generator: Adobe Illustrator 24.2.3, SVG Export Plug-In . SVG Version: 6.00 Build 0)  -->
<svg version="1.1" id="レイヤー_1" xmlns="http://www.w3.org/2000/svg" xmlns:xlink="http://www.w3.org/1999/xlink" x="0px"
	 y="0px" viewBox="0 0 641 147.15" style="enable-background:new 0 0 641 147.15;" xml:space="preserve">
<style type="text/css">
	.st0{fill:#9E1F63;stroke:#9E1F63;stroke-miterlimit:10;}
</style>
<g>
	<path class="st0" d="M42.88,145.2v-36.18H0.5v-3.37h51.43v-17.2h16.85V19.65h3.37v89.38H46.25v36.18H42.88z M54.41,90.94v14.72
		h14.01V90.94H54.41z"/>
	<path class="st0" d="M233.69,99.98l25.89-73.06h-69.87v-3.37h74.66l-36.53,103.03l17.73,17.38l-2.48,2.48l-36.35-35.82h-0.18v-0.18
		l-16.49-16.31l2.31-2.31l14.01,13.65c0.23-2.13,0.94-4.14,2.13-6.03c2.13-3.43,5.2-5.56,9.22-6.38c3.9-0.94,7.63-0.29,11.17,1.95
		C230.8,96.2,232.39,97.86,233.69,99.98z M208.69,107.96l16.49,16.14l7.27-20.75c-0.95-2.6-2.6-4.67-4.97-6.21
		c-2.84-1.77-5.91-2.31-9.22-1.6c-3.31,0.59-5.85,2.37-7.63,5.32C209.22,103,208.57,105.37,208.69,107.96z"/>
	<path class="st0" d="M370.95,144.67l-3.01-1.77l70.76-116.33H372.9V23.2h71.82l-32.81,54.09l34.93,66.5l-2.84,1.6l-21.1-39.72
		c-2.48,6.15-7.09,9.4-13.83,9.75c-6.98-0.35-11.65-3.78-14.01-10.29L370.95,144.67z M421.14,102.11l-11.35-21.46l-12.95,21.28
		c1.3,6.74,5.38,10.41,12.24,10.99C415.82,112.34,419.83,108.74,421.14,102.11z"/>
	<path class="st0" d="M563.71,28.52v18.62h-3.37V10.79h3.37v14.36h53.91v113.32h-53.91v-3.37h50.54V28.52H563.71z M627.73,38.45V0.5
		h3.37v37.95H627.73z M637.13,38.45V0.5h3.37v37.95H637.13z"/>
</g>
</svg>
